<?xml version="1.0" encoding="UTF-8"?>
<svg id="Layer_1" xmlns="http://www.w3.org/2000/svg" version="1.1" viewBox="0 0 698.3 224.39">
  <!-- Generator: Adobe Illustrator 30.5.1, SVG Export Plug-In . SVG Version: 2.1.4 Build 3)  -->
  <defs>
    <style>
      .st0, .st1 {
        fill: #6f297c;
      }

      .st0, .st2 {
        fill-rule: evenodd;
      }

      .st2, .st3 {
        fill: #f15a2c;
      }
    </style>
  </defs>
  <path class="st0" d="M87.37,39.92c-22.68,0-41.07,18.39-41.07,41.07,0,11.34,4.6,21.61,12.03,29.04,7.43,7.43,17.7,12.03,29.04,12.03h25.45c9.27,0,16.78,7.51,16.78,16.78,0,4.63-1.88,8.83-4.91,11.86-3.04,3.04-7.23,4.91-11.86,4.91H46.75v24.3h66.08c22.68,0,41.07-18.39,41.07-41.07,0-11.34-4.6-21.61-12.03-29.04-7.43-7.43-17.7-12.03-29.04-12.03h-25.45c-9.26,0-16.78-7.51-16.78-16.78,0-4.63,1.88-8.83,4.91-11.86,3.04-3.04,7.23-4.91,11.86-4.91"/>
  <polygon class="st2" points="90.64 88.52 144.81 51.55 90.64 16.89 90.64 88.52"/>
  <g>
    <path class="st1" d="M187.44,181.01h-3.76c-7.13,0-12.86-1.6-17.2-4.79-5.23-3.56-7.84-8.77-7.84-15.61v-44.18h-5.31v-17.2h5.31v-18.17h22.12v18.17h6.67v17.2h-6.67v40.81c0,4.86,2.22,7.64,6.67,8.36v15.42Z"/>
    <path class="st1" d="M240.75,120.41v59.53h-21.7v-2.85c-2.94,2.74-6.03,4.11-9.29,4.11-12.61-.13-18.92-7.41-18.92-21.83v-13.93c0-7.02,2.04-12.39,6.12-16.13,4.08-3.73,8.94-5.6,14.58-5.6,2.44,0,4.83.65,7.16,1.94v-10.1c-.04-.8-.36-1.48-.94-2.04-.58-.54-1.27-.81-2.07-.81-.84,0-1.55.29-2.14.88-.61.58-.91,1.3-.91,2.14v5.8h-21.8v-.1c0-7.79,2.33-13.52,6.98-17.18,4.65-3.66,10.64-5.49,17.96-5.49s13.07,1.68,17.83,5.05c4.76,3.37,7.14,8.91,7.14,16.62ZM218.7,140.53c-.04-.8-.36-1.47-.94-2.01-.58-.56-1.27-.84-2.07-.84-.84,0-1.55.29-2.14.87-.61.58-.91,1.3-.91,2.14v23.51c0,.84.3,1.57.91,2.17.58.58,1.3.87,2.14.87s1.49-.28,2.07-.84c.58-.56.9-1.24.94-2.04v-23.84Z"/>
    <path class="st1" d="M266.11,104.83c2.89-3.24,6.36-5.42,10.4-6.54v16.45c-1.3-.5-2.45-.75-3.47-.75-4.62,0-6.93,3.06-6.93,9.17v56.74h-22.12v-80.81h22.12v5.73Z"/>
    <path class="st1" d="M313.85,181.01h-3.76c-7.13,0-12.86-1.6-17.2-4.79-5.23-3.56-7.84-8.77-7.84-15.61v-44.18h-5.31v-17.2h5.31v-18.17h22.12v18.17h6.67v17.2h-6.67v40.81c0,4.86,2.22,7.64,6.67,8.36v15.42Z"/>
    <path class="st3" d="M345.17,99.2h22.12v80.84h-22.12v-3.34c-2.89,2.59-6.19,3.89-9.88,3.89-7.9,0-13.23-3.44-15.97-10.33-.95-2.4-1.57-5.18-1.85-8.36-.13-1.12-.19-2.33-.19-3.63l-.03-59.08h21.9v64.75c0,.84.29,1.55.87,2.14.58.58,1.3.87,2.14.87s1.49-.27,2.07-.81c.58-.56.9-1.24.94-2.04v-64.91Z"/>
    <path class="st3" d="M402.54,98.26c7.9,0,13.23,3.44,15.97,10.33.93,2.37,1.54,5.16,1.85,8.36.11,1.12.17,2.33.19,3.63.02.45.03.95.03,1.49v16.42h-.03l.03,18.23c-.02.56-.03,1.07-.03,1.52-.02,1.28-.09,2.48-.19,3.63-.3,3.17-.92,5.95-1.85,8.32-2.74,6.91-8.06,10.36-15.97,10.36-3.72,0-7.02-1.31-9.91-3.92v29.99h-22.09v-107.47h22.09v2.98c2.89-2.59,6.2-3.89,9.91-3.89ZM398.68,115.23c0-.84-.29-1.56-.87-2.14-.61-.6-1.32-.91-2.14-.91s-1.5.28-2.11.84c-.56.56-.86,1.24-.91,2.04l-.03.16v49l.03.13c.04.82.34,1.5.91,2.04.6.56,1.31.84,2.11.84s1.53-.29,2.14-.87c.58-.6.87-1.32.87-2.14v-49Z"/>
    <path class="st1" d="M468.67,144.22c.13.17.26.33.39.49h-.16c1.75,3.56,2.62,7.66,2.62,12.28v2.3c.02,6.85-2.01,12.18-6.09,16-4.28,3.84-10.19,5.76-17.75,5.76-7,0-12.61-1.67-16.84-5.02-4.66-3.67-6.99-8.93-6.99-15.77,0-.11,0-1.48.03-4.11h20.83v6.12c0,.8.28,1.48.84,2.04.56.56,1.24.84,2.04.84.76,0,1.42-.27,1.98-.81.56-.52.86-1.17.91-1.94v-.07c0-2.37-.32-4.21-.97-5.51-.8-2.59-4.38-6.02-10.75-10.3-6.37-4.28-10.38-8-12.05-11.17-.13-.17-.26-.33-.39-.49h.16c-1.75-3.56-2.62-7.65-2.62-12.28v-2.3c-.02-6.84,2.01-12.18,6.09-16,4.27-3.84,10.19-5.76,17.75-5.76,7,0,12.61,1.67,16.84,5.02,4.66,3.67,6.99,8.93,6.99,15.77,0,.11-.01,1.48-.03,4.11h-20.83v-5.86c0-.8-.28-1.48-.84-2.04-.56-.56-1.24-.84-2.04-.84-.76,0-1.41.27-1.97.81-.56.52-.86,1.17-.91,1.94v.84c0,1.68.32,3.17.97,4.47.8,2.59,4.38,6.02,10.75,10.3,6.37,4.28,10.38,8,12.05,11.17Z"/>
    <path class="st1" d="M506.21,181.01h-3.76c-7.13,0-12.86-1.6-17.2-4.79-5.23-3.56-7.84-8.77-7.84-15.61v-44.18h-5.31v-17.2h5.31v-18.17h22.12v18.17h6.67v17.2h-6.67v40.81c0,4.86,2.22,7.64,6.67,8.36v15.42Z"/>
    <path class="st1" d="M541.61,98.52c7.9,0,13.23,3.46,15.97,10.36.93,2.37,1.54,5.15,1.85,8.32.11,1.15.17,2.35.19,3.63.02.47.03.98.03,1.52v57.55h-21.89v-64.75c0-.82-.29-1.53-.88-2.14-.6-.58-1.32-.87-2.14-.87s-1.5.28-2.11.84c-.56.56-.86,1.24-.91,2.04l-.03.13v64.75h-22.09v-98.72h22.09v21.25c2.92-2.61,6.22-3.92,9.91-3.92Z"/>
    <path class="st1" d="M612.8,120.41v59.53h-21.7v-2.85c-2.94,2.74-6.04,4.11-9.29,4.11-12.61-.13-18.92-7.41-18.92-21.83v-13.93c0-7.02,2.04-12.39,6.12-16.13,4.08-3.73,8.94-5.6,14.58-5.6,2.44,0,4.83.65,7.16,1.94v-10.1c-.04-.8-.35-1.48-.94-2.04-.58-.54-1.27-.81-2.07-.81-.84,0-1.55.29-2.14.88-.6.58-.91,1.3-.91,2.14v5.8h-21.8v-.1c0-7.79,2.33-13.52,6.98-17.18,4.65-3.66,10.64-5.49,17.96-5.49s13.07,1.68,17.83,5.05c4.76,3.37,7.14,8.91,7.14,16.62ZM590.75,140.53c-.04-.8-.35-1.47-.94-2.01-.58-.56-1.27-.84-2.07-.84-.84,0-1.55.29-2.14.87-.6.58-.91,1.3-.91,2.14v23.51c0,.84.3,1.57.91,2.17.58.58,1.3.87,2.14.87.8,0,1.49-.28,2.07-.84.58-.56.9-1.24.94-2.04v-23.84Z"/>
    <path class="st1" d="M648.04,98.52c7.9,0,13.23,3.46,15.97,10.36.93,2.37,1.54,5.15,1.85,8.32.11,1.15.17,2.35.19,3.63l.03,59.08h-21.89v-64.75c0-.82-.29-1.53-.88-2.14-.6-.58-1.32-.87-2.14-.87s-1.5.28-2.11.84c-.56.56-.86,1.24-.91,2.04v64.87h-22.12v-80.81h22.12v3.34c2.89-2.61,6.19-3.92,9.88-3.92Z"/>
  </g>
</svg>